<svg xmlns="http://www.w3.org/2000/svg" width="28" height="28" viewBox="0 0 28 28">
    <g fill="none" fill-rule="evenodd">
        <g fill="#4D4D4D" fill-rule="nonzero">
            <g>
                <path d="M18.463 14.77c3.422 0 6.154 2.97 6.28 6.627l.004.263v1.428c0 .607-.462 1.108-1.055 1.172l-.128.007H4.436c-.61 0-1.112-.46-1.176-1.05l-.007-.13V21.66c0-3.69 2.653-6.746 6.04-6.886l.244-.005h8.926zm0 2.042H9.537c-2.237 0-4.123 2.007-4.235 4.603l-.006.245v.563h17.408v-.563c0-2.631-1.818-4.718-4.032-4.842l-.209-.006zM14 2.1c3.062 0 5.54 2.492 5.54 5.56 0 3.067-2.478 5.559-5.54 5.559s-5.54-2.492-5.54-5.56C8.46 4.592 10.939 2.1 14 2.1zm0 2.043c-1.93 0-3.496 1.573-3.496 3.516S12.07 11.175 14 11.175s3.496-1.573 3.496-3.516S15.93 4.143 14 4.143z" transform="translate(-1176 -28) translate(1176 28)"/>
            </g>
        </g>
    </g>
</svg>
